<?xml version="1.0" standalone="no"?>
<!DOCTYPE svg PUBLIC "-//W3C//DTD SVG 20010904//EN"
 "http://www.w3.org/TR/2001/REC-SVG-20010904/DTD/svg10.dtd">
<svg version="1.0" xmlns="http://www.w3.org/2000/svg"
 width="260.000000pt" height="260.000000pt" viewBox="0 0 260.000000 260.000000"
 preserveAspectRatio="xMidYMid meet">
<metadata>
Created by potrace 1.11, written by Peter Selinger 2001-2013
</metadata>
<g transform="translate(0.000000,260.000000) scale(0.100000,-0.100000)"
fill="#000000" stroke="none">
<path d="M730 2400 l0 -40 -40 0 -40 0 0 -45 0 -45 -40 0 -40 0 0 -40 0 -40
-40 0 -40 0 0 -80 0 -80 -40 0 -40 0 0 -80 0 -80 -40 0 -40 0 0 -80 0 -80 -45
0 -45 0 0 -85 0 -85 -40 0 -40 0 0 -80 0 -80 -40 0 -40 0 0 -80 0 -80 -40 0
-40 0 0 -245 0 -245 40 0 40 0 0 -40 0 -40 40 0 40 0 0 -40 0 -40 40 0 40 0 0
-40 0 -40 245 0 245 0 0 -40 0 -40 80 0 80 0 0 -85 0 -85 85 0 85 0 0 -40 0
-40 325 0 325 0 0 40 0 40 80 0 80 0 0 40 0 40 40 0 40 0 0 45 0 45 40 0 40 0
0 40 0 40 40 0 40 0 0 160 0 160 -40 0 -40 0 0 40 0 40 -40 0 -40 0 0 40 0 40
-40 0 -40 0 0 45 0 45 -40 0 -40 0 0 80 0 80 -40 0 -40 0 0 80 0 80 80 0 80 0
0 -40 0 -40 80 0 80 0 0 -40 0 -40 40 0 40 0 0 -40 0 -40 40 0 40 0 0 -40 0
-40 125 0 125 0 0 40 0 40 40 0 40 0 0 40 0 40 40 0 40 0 0 160 0 160 -40 0
-40 0 0 40 0 40 -40 0 -40 0 0 45 0 45 -40 0 -40 0 0 40 0 40 -165 0 -165 0 0
40 0 40 -245 0 -245 0 0 -40 0 -40 -40 0 -40 0 0 120 0 120 -40 0 -40 0 0 80
0 80 -80 0 -80 0 0 85 0 85 -40 0 -40 0 0 40 0 40 -205 0 -205 0 0 -40z m250
-330 l0 -40 40 0 40 0 0 -120 0 -120 -40 0 -40 0 0 -85 0 -85 -45 0 -45 0 0
-120 0 -120 -40 0 -40 0 0 -40 0 -40 -40 0 -40 0 0 -120 0 -120 -40 0 -40 0 0
-45 0 -45 -40 0 -40 0 0 -40 0 -40 -120 0 -120 0 0 85 0 85 40 0 40 0 0 40 0
40 40 0 40 0 0 80 0 80 40 0 40 0 0 80 0 80 40 0 40 0 0 125 0 125 40 0 40 0
0 120 0 120 40 0 40 0 0 40 0 40 40 0 40 0 0 40 0 40 45 0 45 0 0 -40z m240
-975 l0 -125 80 0 80 0 0 -40 0 -40 40 0 40 0 0 -40 0 -40 -200 0 -200 0 0 40
0 40 -40 0 -40 0 0 40 0 40 40 0 40 0 0 45 0 45 40 0 40 0 0 80 0 80 40 0 40
0 0 -125z"/>
</g>
</svg>
